<svg width="24" height="25" viewBox="0 0 30 31" fill="none" xmlns="http://www.w3.org/2000/svg">
    <path d="M28.5782 15.2724C28.5792 14.2137 28.3197 13.171 27.8226 12.2363C27.3255 11.3016 26.606 10.5035 25.7277 9.91249C24.8493 9.32146 23.839 8.95561 22.7859 8.8472C21.7328 8.73879 20.6691 8.89115 19.6888 9.29084C18.7084 9.69054 17.8415 10.3253 17.1644 11.1391C16.4873 11.953 16.0208 12.9209 15.8061 13.9576C15.5913 14.9943 15.635 16.0679 15.9331 17.0837C16.2313 18.0996 16.7748 19.0265 17.5157 19.7827V26.3349C17.5156 26.4922 17.5557 26.6468 17.6322 26.7842C17.7087 26.9215 17.819 27.037 17.9528 27.1197C18.0865 27.2024 18.2391 27.2495 18.3962 27.2566C18.5532 27.2636 18.7095 27.2304 18.8501 27.16L22.1251 25.5214L25.4001 27.16C25.5407 27.2304 25.6969 27.2636 25.854 27.2566C26.011 27.2495 26.1637 27.2024 26.2974 27.1197C26.4311 27.037 26.5415 26.9215 26.618 26.7842C26.6945 26.6468 26.7346 26.4922 26.7345 26.3349V19.7827C27.9169 18.5793 28.579 16.9595 28.5782 15.2724ZM22.1251 10.663C23.0367 10.663 23.9279 10.9333 24.6859 11.4398C25.4439 11.9463 26.0347 12.6662 26.3836 13.5085C26.7325 14.3507 26.8238 15.2775 26.6459 16.1716C26.4681 17.0658 26.0291 17.8871 25.3844 18.5317C24.7398 19.1764 23.9185 19.6154 23.0243 19.7932C22.1302 19.9711 21.2034 19.8798 20.3611 19.5309C19.5189 19.182 18.799 18.5913 18.2925 17.8332C17.786 17.0752 17.5157 16.1841 17.5157 15.2724C17.5157 14.0499 18.0013 12.8775 18.8657 12.0131C19.7302 11.1486 20.9026 10.663 22.1251 10.663ZM22.5376 23.6661C22.4095 23.602 22.2683 23.5686 22.1251 23.5686C21.9819 23.5686 21.8406 23.602 21.7125 23.6661L19.3594 24.8438V21.1021C20.2236 21.5126 21.1684 21.7255 22.1251 21.7255C23.0818 21.7255 24.0265 21.5126 24.8907 21.1021V24.8438L22.5376 23.6661ZM15.6719 22.6474C15.6719 22.8919 15.5748 23.1264 15.4019 23.2993C15.229 23.4722 14.9945 23.5693 14.7501 23.5693H4.60938C4.12039 23.5693 3.65142 23.3751 3.30565 23.0293C2.95988 22.6835 2.76563 22.2145 2.76562 21.7256V6.97549C2.76562 6.48649 2.95988 6.01752 3.30565 5.67175C3.65142 5.32598 4.12039 5.13173 4.60938 5.13173H24.8907C25.3797 5.13173 25.8487 5.32598 26.1945 5.67175C26.5402 6.01752 26.7345 6.48649 26.7345 6.97549C26.7345 7.21998 26.6374 7.45447 26.4645 7.62735C26.2916 7.80024 26.0571 7.89737 25.8126 7.89737C25.5681 7.89737 25.3336 7.80024 25.1607 7.62735C24.9878 7.45447 24.8907 7.21998 24.8907 6.97549H4.60938V21.7256H14.7501C14.9945 21.7256 15.229 21.8227 15.4019 21.9956C15.5748 22.1684 15.6719 22.4029 15.6719 22.6474ZM13.8282 16.1943C13.8282 16.4388 13.731 16.6733 13.5582 16.8461C13.3853 17.019 13.1508 17.1162 12.9063 17.1162H8.2969C8.0524 17.1162 7.81792 17.019 7.64503 16.8461C7.47215 16.6733 7.37502 16.4388 7.37502 16.1943C7.37502 15.9498 7.47215 15.7153 7.64503 15.5424C7.81792 15.3695 8.0524 15.2724 8.2969 15.2724H12.9063C13.1508 15.2724 13.3853 15.3695 13.5582 15.5424C13.731 15.7153 13.8282 15.9498 13.8282 16.1943ZM13.8282 12.5068C13.8282 12.7513 13.731 12.9857 13.5582 13.1586C13.3853 13.3315 13.1508 13.4286 12.9063 13.4286H8.2969C8.0524 13.4286 7.81792 13.3315 7.64503 13.1586C7.47215 12.9857 7.37502 12.7513 7.37502 12.5068C7.37502 12.2623 7.47215 12.0278 7.64503 11.8549C7.81792 11.682 8.0524 11.5849 8.2969 11.5849H12.9063C13.1508 11.5849 13.3853 11.682 13.5582 11.8549C13.731 12.0278 13.8282 12.2623 13.8282 12.5068Z" fill="#139A74"></path>
</svg>