<svg width="24" height="25" viewBox="0 0 30 31" fill="none" xmlns="http://www.w3.org/2000/svg">
    <path d="M18.9492 12.9114L13.4179 9.22386C13.2791 9.13121 13.1176 9.078 12.9509 9.06992C12.7842 9.06185 12.6184 9.0992 12.4712 9.17799C12.324 9.25678 12.201 9.37406 12.1153 9.5173C12.0295 9.66055 11.9843 9.82438 11.9844 9.99132V17.3664C11.9843 17.5333 12.0295 17.6971 12.1153 17.8404C12.201 17.9836 12.324 18.1009 12.4712 18.1797C12.6184 18.2585 12.7842 18.2958 12.9509 18.2878C13.1176 18.2797 13.2791 18.2265 13.4179 18.1338L18.9492 14.4463C19.0757 14.3622 19.1794 14.2481 19.2511 14.1142C19.3228 13.9803 19.3603 13.8307 19.3603 13.6788C19.3603 13.5269 19.3228 13.3774 19.2511 13.2435C19.1794 13.1096 19.0757 12.9955 18.9492 12.9114ZM13.8282 15.6436V11.7198L16.7759 13.6788L13.8282 15.6436ZM24.8907 5.38193H4.60938C4.12039 5.38193 3.65142 5.57618 3.30565 5.92195C2.95988 6.26772 2.76563 6.73669 2.76562 7.22569V20.132C2.76563 20.621 2.95988 21.09 3.30565 21.4357C3.65142 21.7815 4.12039 21.9757 4.60938 21.9757H24.8907C25.3797 21.9757 25.8487 21.7815 26.1945 21.4357C26.5402 21.09 26.7345 20.621 26.7345 20.132V7.22569C26.7345 6.73669 26.5402 6.26772 26.1945 5.92195C25.8487 5.57618 25.3797 5.38193 24.8907 5.38193ZM24.8907 20.132H4.60938V7.22569H24.8907V20.132ZM26.7345 24.7414C26.7345 24.9859 26.6374 25.2204 26.4645 25.3933C26.2916 25.5661 26.0571 25.6633 25.8126 25.6633H3.6875C3.44301 25.6633 3.20852 25.5661 3.03564 25.3933C2.86275 25.2204 2.76563 24.9859 2.76562 24.7414C2.76562 24.4969 2.86275 24.2624 3.03564 24.0895C3.20852 23.9166 3.44301 23.8195 3.6875 23.8195H25.8126C26.0571 23.8195 26.2916 23.9166 26.4645 24.0895C26.6374 24.2624 26.7345 24.4969 26.7345 24.7414Z" fill="#E53E3E"></path>
</svg>