<svg width="24" height="24" viewBox="0 0 30 30" fill="none" xmlns="http://www.w3.org/2000/svg">
    <path d="M23.9688 3.0378H8.29689C7.3189 3.0378 6.38097 3.4263 5.68942 4.11784C4.99788 4.80939 4.60938 5.74732 4.60938 6.72531V26.0848C4.60938 26.3293 4.7065 26.5638 4.87939 26.7366C5.05227 26.9095 5.28676 27.0066 5.53125 27.0066H22.1251C22.3696 27.0066 22.6041 26.9095 22.7769 26.7366C22.9498 26.5638 23.047 26.3293 23.047 26.0848C23.047 25.8403 22.9498 25.6058 22.7769 25.4329C22.6041 25.26 22.3696 25.1629 22.1251 25.1629H6.45313C6.45313 24.6739 6.64739 24.2049 6.99316 23.8592C7.33893 23.5134 7.8079 23.3191 8.29689 23.3191H23.9688C24.2133 23.3191 24.4478 23.222 24.6207 23.0491C24.7936 22.8762 24.8907 22.6418 24.8907 22.3973V3.95967C24.8907 3.71518 24.7936 3.48069 24.6207 3.30781C24.4478 3.13492 24.2133 3.0378 23.9688 3.0378ZM13.8282 4.88155H19.3594V13.1785L17.1458 11.5191C16.9862 11.3994 16.7921 11.3347 16.5927 11.3347C16.3932 11.3347 16.1991 11.3994 16.0395 11.5191L13.8282 13.1785V4.88155ZM23.047 21.4754H8.29689C7.64944 21.4745 7.0133 21.6451 6.45313 21.9697V6.72531C6.45313 6.23632 6.64739 5.76735 6.99316 5.42158C7.33893 5.07581 7.8079 4.88155 8.29689 4.88155H11.9844V15.0222C11.9844 15.1934 12.0321 15.3612 12.1221 15.5069C12.2121 15.6525 12.3409 15.7702 12.494 15.8468C12.6471 15.9233 12.8186 15.9558 12.9891 15.9404C13.1596 15.925 13.3225 15.8624 13.4594 15.7597L16.5938 13.4089L19.7293 15.7597C19.8886 15.8792 20.0822 15.9439 20.2813 15.9441C20.5258 15.9441 20.7603 15.847 20.9332 15.6741C21.1061 15.5012 21.2032 15.2667 21.2032 15.0222V4.88155H23.047V21.4754Z" fill="#F59E0B"></path>
</svg>